<svg width="18" height="18" viewBox="0 0 18 18" fill="none" 
  xmlns="http://www.w3.org/2000/svg">
  <g opacity="0.5">
    <path d="M15.6377 14.58L12.6377 11.58C12.5405 11.4805 12.4323 11.3925 12.3152 11.3175L11.5652 10.8C12.3142 9.87323 12.7256 8.71923 12.7319 7.52765C12.7381 6.33607 12.3389 5.17781 11.5997 4.24321C10.8605 3.30861 9.82531 2.65328 8.66433 2.38491C7.50335 2.11654 6.28561 2.25111 5.21124 2.76649C4.13686 3.28187 3.26978 4.14741 2.75247 5.22085C2.23517 6.2943 2.09842 7.5118 2.36471 8.67326C2.631 9.83472 3.28448 10.871 4.21775 11.6119C5.15103 12.3528 6.30858 12.7541 7.50016 12.75C8.6912 12.7503 9.84695 12.3457 10.7777 11.6025L11.3402 12.3525C11.4069 12.4491 11.4822 12.5395 11.5652 12.6225L14.5652 15.6225C14.6 15.6576 14.6415 15.6855 14.6872 15.7046C14.7329 15.7236 14.7819 15.7334 14.8314 15.7334C14.8809 15.7334 14.9299 15.7236 14.9756 15.7046C15.0213 15.6855 15.0628 15.6576 15.0977 15.6225L15.6227 15.0975C15.6912 15.0297 15.731 14.9381 15.7338 14.8418C15.7366 14.7454 15.7022 14.6516 15.6377 14.58ZM7.50016 11.25C6.75848 11.25 6.03346 11.0301 5.41677 10.618C4.80009 10.206 4.31944 9.62028 4.03561 8.93506C3.75178 8.24984 3.67752 7.49584 3.82222 6.76841C3.96691 6.04098 4.32406 5.37279 4.84851 4.84835C5.37296 4.3239 6.04114 3.96675 6.76857 3.82205C7.496 3.67736 8.25 3.75162 8.93523 4.03545C9.62045 4.31928 10.2061 4.79992 10.6182 5.41661C11.0302 6.03329 11.2502 6.75832 11.2502 7.5C11.2502 8.49456 10.8551 9.44839 10.1518 10.1516C9.44855 10.8549 8.49472 11.25 7.50016 11.25Z" fill="#000" />
  </g>
</svg>